<?xml version="1.0" encoding="utf-8"?>
<!-- Generator: Adobe Illustrator 19.2.1, SVG Export Plug-In . SVG Version: 6.00 Build 0)  -->
<svg version="1.1" xmlns="http://www.w3.org/2000/svg" xmlns:xlink="http://www.w3.org/1999/xlink" x="0px" y="0px"
	 viewBox="0 0 487.1 96.2" style="enable-background:new 0 0 487.1 96.2;" xml:space="preserve">
<style type="text/css">
	.st0{fill:#FFFFFF;}
	.st1{display:none;}
	.st2{display:inline;}
</style>
<g id="Qantas_Tail">
	<path class="st0" d="M56.2,16.8C45.7,6.3,31.4,0,16.5,0H0l1.2,3.2C12.1,31.4,32.6,18.4,60,43.5l0.3,0.3c3.7,3.4,6.2,0.2,5-1.7
		c-1.1-1.8-1-2.8-0.9-3c5.5,1.5,10.4,4.2,14.6,7.7l-0.4,0.7c-2.1,4.1-22.3,2.4-22.5,10.9c-0.1,2.3,1.4,4.4,3.4,5.2l4,1.6
		c13.1,5.3,24.8,13.3,34.4,23.4c0.2,0.2,0.2,0.5,0,0.7c-0.1,0.1-0.2,0.1-0.3,0.1s-0.2,0-0.3-0.1l0,0C83.4,78.2,67.5,71.5,51.1,69
		c-1.2-0.2-2.1-1.1-2.2-2.3C45.8,38,17.5,36,6.7,17.6l29.9,78.6h98.6L56.2,16.8z"/>
</g>
<g id="Qantas.com_Type">
	<g>
		<g>
			<path class="st0" d="M145.3,78.5c-19.5,0-31.9-10.1-31.9-22.9c0-12.9,13.1-22.9,32.4-22.9s32.4,10,32.4,22.4
				c0,5.5-2.5,10.1-7.2,13.9h11.5l-2.7,4.7c-1.7,3-3.9,4.8-8.5,4.8H145.3z M145.9,68.1c10.6,0,19.6-5.3,19.6-12.5s-9-12.5-19.6-12.5
				c-10.6,0-19.6,5.3-19.6,12.5S135.2,68.1,145.9,68.1z"/>
			<path class="st0" d="M230.5,70.8h-30.7l-4.4,7.7h-12.7L204,41.7c1.7-2.9,4.1-5.2,8.9-5.2h4.8c4.8,0,7.2,2.2,8.9,5.2l21.3,36.9
				h-13L230.5,70.8z M205,61.5h20.3l-9.4-16.8c-0.2-0.4-0.4-0.5-0.7-0.5c-0.3,0-0.5,0.1-0.7,0.5L205,61.5z"/>
			<path class="st0" d="M308.5,36.5v42h-11.4l-33.4-27.8v27.8h-11.4v-42h7.1c3.6,0,5.5,1,7.6,2.7l30.1,25V36.5H308.5z"/>
			<path class="st0" d="M348.9,46v32.5h-11.4V46h-23.3v-9.5h58V46H348.9z"/>
			<path class="st0" d="M410.1,70.8h-30.7l-4.4,7.7h-12.7l21.3-36.9c1.7-2.9,4.1-5.2,8.9-5.2h4.8c4.8,0,7.2,2.2,8.9,5.2l21.3,36.9
				h-13L410.1,70.8z M384.6,61.5h20.3l-9.4-16.8c-0.2-0.4-0.4-0.5-0.7-0.5s-0.5,0.1-0.7,0.5L384.6,61.5z"/>
			<path class="st0" d="M431.4,75.5l-1.1-0.3l2.9-9.1c8.2,2.6,16.9,3.7,24.8,3.7c12.9,0,16.1-1.5,16.1-3.1c0-0.7-0.4-1.2-1.5-1.5
				c-1.3-0.4-4.9-1.2-15.5-2.9c-11.7-1.9-17-2.9-20.8-4.6c-3.9-1.8-6.2-4.6-6.2-8.9c0-3.2,1.6-5.8,4.1-7.8
				c4.5-3.5,12.2-4.9,20.5-4.9c10.8,0,19.8,0.9,29.8,3.4l0.9,0.3l-2.4,8.9c-11.2-2.4-17.4-3.1-25.9-3.2c-6-0.1-10.1,0.4-12.3,1.1
				c-1.2,0.4-1.7,1-1.7,1.6c0,0.6,0.4,1.2,1.6,1.6c1.3,0.4,3.5,1,15,2.8c12.4,2,16.5,2.9,19.9,4.2c4.6,1.8,7.5,5.1,7.5,9.2
				c0,5.2-4,9.1-11,11.2c-4.3,1.3-10.1,2-16.6,2C449.2,79.1,438.4,77.7,431.4,75.5z"/>
		</g>
	</g>
</g>
<g id="Guides" class="st1">
	<g class="st2">
	</g>
</g>
</svg>
