<?xml version="1.0" encoding="utf-8"?>
<!-- Generator: Adobe Illustrator 19.2.1, SVG Export Plug-In . SVG Version: 6.00 Build 0)  -->
<svg version="1.1" xmlns="http://www.w3.org/2000/svg" xmlns:xlink="http://www.w3.org/1999/xlink" x="0px" y="0px"
	 viewBox="0 0 592.5 117" style="enable-background:new 0 0 592.5 117;" xml:space="preserve">
<style type="text/css">
	.st0{fill:url(#SVGID_1_);}
	.st1{fill:#FFFFFF;}
	.st2{fill:url(#SVGID_2_);}
	.st3{fill:url(#SVGID_3_);}
	.st4{fill:url(#SVGID_4_);}
	.st5{fill:#323232;}
</style>
<g id="Qantas_Tail">
	<g>
		<linearGradient id="SVGID_1_" gradientUnits="userSpaceOnUse" x1="104.2913" y1="116.5667" x2="24.2523" y2="-0.3273">
			<stop  offset="0" style="stop-color:#BE0000"/>
			<stop  offset="0.3898" style="stop-color:#DE0000"/>
			<stop  offset="0.768" style="stop-color:#F60000"/>
			<stop  offset="1" style="stop-color:#FF0000"/>
		</linearGradient>
		<path class="st0" d="M44.6,117h120L68.4,20.4C55.6,7.6,38.2,0,20.1,0H0l1.5,3.9l6.7,17.5L44.6,117z"/>
	</g>
</g>
<g id="Roo">
	<path class="st1" d="M8.2,21.4c13.1,22.4,47.6,24.8,51.4,59.7c0.2,1.4,1.3,2.6,2.7,2.8c19.9,3.1,39.2,11.3,56,24.8l0,0
		c0.1,0.1,0.2,0.1,0.4,0.1c0.1,0,0.3-0.1,0.4-0.2c0.2-0.2,0.2-0.6,0-0.8c-11.6-12.2-25.9-22-41.8-28.4l-4.9-2
		c-2.5-1-4.2-3.5-4.2-6.3c0.3-10.4,24.9-8.3,27.4-13.3l0.4-0.9c-5.1-4.3-11.1-7.6-17.7-9.4c-0.1,0.3-0.2,1.5,1.1,3.7
		c1.5,2.4-1.6,6.2-6.1,2.1L73,52.9C39.7,22.4,14.7,38.2,1.5,3.9L8.2,21.4z"/>
</g>
<g id="Roo_Shading">
	<linearGradient id="SVGID_2_" gradientUnits="userSpaceOnUse" x1="82.1744" y1="63.7973" x2="83.2533" y2="51.4651">
		<stop  offset="0.65" style="stop-color:#FFFFFF;stop-opacity:0"/>
		<stop  offset="0.7285" style="stop-color:#E0E0E0;stop-opacity:0.2617"/>
		<stop  offset="0.8148" style="stop-color:#C5C5C5;stop-opacity:0.5493"/>
		<stop  offset="0.8914" style="stop-color:#B5B5B5;stop-opacity:0.8047"/>
		<stop  offset="0.95" style="stop-color:#AFAFAF"/>
	</linearGradient>
	<path class="st2" d="M88.2,56.3c0,0-5.5,0.3-8.8-5.2c1,1.6-0.1,3.9-2.3,3.9v8.3c3.6-1,7.7-1.7,11.1-2.4V56.3z"/>
	<linearGradient id="SVGID_3_" gradientUnits="userSpaceOnUse" x1="66.3249" y1="96.3397" x2="118.2299" y2="96.3397">
		<stop  offset="0" style="stop-color:#FFFFFF;stop-opacity:0"/>
		<stop  offset="8.390792e-02" style="stop-color:#F1F1F1;stop-opacity:9.323102e-02"/>
		<stop  offset="0.2921" style="stop-color:#D4D4D4;stop-opacity:0.3246"/>
		<stop  offset="0.4993" style="stop-color:#C0C0C0;stop-opacity:0.5548"/>
		<stop  offset="0.7032" style="stop-color:#B3B3B3;stop-opacity:0.7814"/>
		<stop  offset="0.9" style="stop-color:#AFAFAF"/>
	</linearGradient>
	<path class="st3" d="M66.3,84.6c18.4,3.5,36.3,11.5,51.9,24C83.3,78.9,67.5,84.3,66.3,84.6z"/>
	<linearGradient id="SVGID_4_" gradientUnits="userSpaceOnUse" x1="1.4988" y1="42.5081" x2="59.5197" y2="42.5081">
		<stop  offset="0.25" style="stop-color:#FFFFFF;stop-opacity:0"/>
		<stop  offset="0.4615" style="stop-color:#EDEDED;stop-opacity:0.282"/>
		<stop  offset="0.886" style="stop-color:#BDBDBD;stop-opacity:0.848"/>
		<stop  offset="1" style="stop-color:#AFAFAF"/>
	</linearGradient>
	<path class="st4" d="M15.2,23L15.2,23c-5.4-3.9-10-9.5-13.7-19l6.7,17.5c13.1,22.4,47.6,24.8,51.4,59.7
		C55.7,36.6,36.2,43.2,15.2,23z"/>
</g>
<g id="Qantas.com_Type">
	<g>
		<g>
			<path class="st5" d="M176.8,95.5C153,95.5,138,83.2,138,67.7c0-15.7,15.9-27.8,39.5-27.8s39.5,12.1,39.5,27.2
				c0,6.7-3,12.3-8.7,16.9h14l-3.3,5.7c-2.1,3.6-4.7,5.8-10.3,5.8H176.8z M177.4,82.9c12.9,0,23.9-6.4,23.9-15.2
				s-10.9-15.2-23.9-15.2c-12.9,0-23.9,6.4-23.9,15.2S164.5,82.9,177.4,82.9z"/>
			<path class="st5" d="M280.4,86.1h-37.3l-5.3,9.4h-15.5l25.9-44.8c2-3.5,5-6.3,10.8-6.3h5.8c5.9,0,8.8,2.7,10.8,6.3l25.9,44.8
				h-15.8L280.4,86.1z M249.4,74.9h24.7l-11.5-20.4c-0.3-0.5-0.5-0.6-0.9-0.6c-0.4,0-0.6,0.1-0.9,0.6L249.4,74.9z"/>
			<path class="st5" d="M375.3,44.4v51.1h-13.8l-40.6-33.9v33.9H307V44.4h8.7c4.4,0,6.7,1.2,9.2,3.3l36.6,30.5V44.4H375.3z"/>
			<path class="st5" d="M424.5,55.9v39.6h-13.8V55.9h-28.4V44.4h70.5v11.5H424.5z"/>
			<path class="st5" d="M498.9,86.1h-37.3l-5.3,9.4h-15.5l25.9-44.8c2-3.5,5-6.3,10.8-6.3h5.8c5.9,0,8.8,2.7,10.8,6.3L520,95.5
				h-15.8L498.9,86.1z M467.9,74.9h24.7l-11.5-20.4c-0.3-0.5-0.5-0.6-0.9-0.6s-0.6,0.1-0.9,0.6L467.9,74.9z"/>
			<path class="st5" d="M524.8,91.8l-1.3-0.4l3.5-11.1c10,3.2,20.6,4.5,30.2,4.5c15.7,0,19.6-1.8,19.6-3.8c0-0.8-0.5-1.4-1.8-1.8
				c-1.6-0.5-5.9-1.4-18.8-3.5c-14.2-2.3-20.7-3.5-25.4-5.7c-4.7-2.2-7.6-5.7-7.6-10.8c0-3.9,1.9-7,5-9.5c5.5-4.2,14.8-5.9,24.9-5.9
				c13.1,0,24.1,1.1,36.3,4.1l1.1,0.3l-2.9,10.8c-13.6-2.9-21.2-3.7-31.6-3.9c-7.3-0.1-12.3,0.5-15,1.3c-1.5,0.5-2.1,1.2-2.1,2
				c0,0.8,0.5,1.4,2,1.9c1.6,0.5,4.3,1.2,18.3,3.4c15.1,2.5,20.1,3.5,24.3,5.1c5.7,2.2,9.1,6.2,9.1,11.2c0,6.3-4.9,11-13.4,13.6
				c-5.2,1.6-12.3,2.5-20.2,2.5C546.5,96.2,533.3,94.6,524.8,91.8z"/>
		</g>
	</g>
</g>
<g id="Guides">
	<g>
	</g>
</g>
</svg>
